# xmcd
#
# Track frame offsets:
#	150
#	19112
#	33267
#	51582
#	68297
#	86010
#	102385
#	115500
#	127957
#
# Disc length: 1845 seconds
#
# Revision: 0
# Processed by: cddbd v1.5.1PL0 Copyright (c) Steve Scherf et al.
# Submitted via: audiograbber 1.83.01
#
DISCID=6a073309
DTITLE=Smoky Dawson - Goodtime Radio
DYEAR=1900
DGENRE=Country
TTITLE0=Good Time Radio
TTITLE1=G'Day
TTITLE2=Memories Of Pinnibar
TTITLE3=Old Soldiers
TTITLE4=You'll Never Grow Old
TTITLE5=Kids On The Street
TTITLE6=Ridin'
TTITLE7=Jindawarabell
TTITLE8=Good Day Today
EXTD=
EXTT0=
EXTT1=
EXTT2=
EXTT3=
EXTT4=
EXTT5=
EXTT6=
EXTT7=
EXTT8=
PLAYORDER=
